<svg width="24" height="23" viewBox="0 0 24 23" fill="none" xmlns="http://www.w3.org/2000/svg">
<path d="M22.8273 9.50053L13.4454 9.50008C13.0311 9.50008 12.6953 9.83583 12.6953 10.2501V13.2471C12.6953 13.6612 13.0311 13.9971 13.4454 13.9971H18.7287C18.1501 15.4984 17.0704 16.7557 15.6927 17.5546L17.9455 21.4542C21.5593 19.3643 23.6958 15.6974 23.6958 11.5925C23.6958 11.0081 23.6527 10.5902 23.5665 10.1198C23.501 9.76234 23.1907 9.50053 22.8273 9.50053Z" fill="#167EE6"/>
<path d="M12.1968 18.5C9.61127 18.5 7.35412 17.0874 6.14185 14.997L2.24219 17.2446C4.2267 20.6839 7.94433 23 12.1968 23C14.2829 23 16.2514 22.4383 17.9471 21.4595V21.4542L15.6943 17.5545C14.6638 18.1521 13.4714 18.5 12.1968 18.5Z" fill="#12B347"/>
<path d="M17.9456 21.4595V21.4542L15.6928 17.5545C14.6623 18.1521 13.4699 18.5 12.1953 18.5V23C14.2814 23 16.25 22.4383 17.9456 21.4595Z" fill="#0F993E"/>
<path d="M5.19551 11.5001C5.19551 10.2257 5.54332 9.03342 6.14085 8.00305L2.24119 5.75542C1.25695 7.4457 0.695312 9.4087 0.695312 11.5001C0.695312 13.5915 1.25695 15.5545 2.24119 17.2447L6.14085 14.9971C5.54332 13.9667 5.19551 12.7745 5.19551 11.5001Z" fill="#FFD500"/>
<path d="M12.1929 4.5C13.8789 4.5 15.4277 5.09908 16.6373 6.09558C16.9357 6.3414 17.3695 6.32365 17.6428 6.0503L19.7664 3.92685C20.0766 3.61671 20.0545 3.10904 19.7231 2.82163C17.6964 1.06344 15.0594 0 12.1929 0C7.94042 0 4.22279 2.31604 2.23828 5.75535L6.13794 8.00297C7.35021 5.91262 9.60737 4.5 12.1929 4.5Z" fill="#FF4B26"/>
<path d="M16.6397 6.09558C16.9381 6.3414 17.3719 6.32365 17.6453 6.0503L19.7688 3.92685C20.0789 3.61671 20.0568 3.10904 19.7255 2.82163C17.6988 1.06339 15.0618 0 12.1953 0V4.5C13.8813 4.5 15.4301 5.09908 16.6397 6.09558Z" fill="#D93F21"/>
</svg>
